<?xml version="1.0" encoding="UTF-8"?>
<svg width="22px" height="24px" viewBox="0 0 22 24" version="1.1" xmlns="http://www.w3.org/2000/svg" xmlns:xlink="http://www.w3.org/1999/xlink">
    <!-- Generator: Sketch 53 (72520) - https://sketchapp.com -->
    <title>Combined Shape</title>
    <desc>Created with Sketch.</desc>
    <g id="Home-channel-and-Public-channel" stroke="none" stroke-width="1" fill="inherit" fill-rule="evenodd">
        <g id="Dashboard---Public-channel-UPDATE" transform="translate(-637.000000, -950.000000)" fill="inherit">
            <g id="Activity-card-Copy" transform="translate(378.000000, 942.000000)">
                <g id="Rectangle-3">
                    <path d="M263.794288,10 L260,10 C260,10 260,12.4776603 260,13.5 C260,14.4927899 262.652234,16.4870044 263.893061,16.9617165 C263.945813,17.4738953 264,18 264,18 C264,18 259,15.8497088 259,12.9979801 C259,11.5993388 259,10.6464382 259,9.99949502 C259,9 259.434364,9 259.958858,9 C261.852406,9 263.794288,9 263.794288,9 L263.794288,10 Z M276.106939,16.9617165 C277.347766,16.4870044 280,14.4927899 280,13.5 C280,12.4776603 280,10 280,10 L276.205712,10 L276.205712,9 C276.205712,9 278.147594,9 280.041142,9 C280.565636,9 281,9 281,9.99949502 C281,10.6464382 281,11.5993388 281,12.9979801 C281,15.8497088 276,18 276,18 L276.106939,16.9617165 Z M271,28 L272.852222,28 L274,31 L274.802,31 L275.95,31 C276.5289,31 277,31.4486667 277,32 C275.000548,32 265.1,32 263,32 C263,31.4486667 263.4711,31 264.05,31 L265.1,31 L266,31 L267.148467,28 L268,28 L268,22.61055 C265.671912,21.6725117 264,19.144853 264,16.1818182 L264,8 L276,8 L276,16.1818182 C276,19.5542881 273.834112,22.3627476 271,22.9053052 L271,28 Z M268,29 L267.765645,29 L267,31 L273,31 L272.234815,29 L271,29 L268,29 Z M265,16.0909091 C265,19.3491818 267.243,22 270,22 C272.757,22 275,19.3491818 275,16.0909091 L275,9 L265,9 L265,16.0909091 Z M269,23 L269,28 L270,28 L270,23 L269,23 Z M270,19.5555556 C270,19.8008889 269.800889,20 269.555556,20 C267.594667,20 266,18.4053333 266,16.4444444 C266,16.1991111 266.199111,16 266.444444,16 C266.689778,16 266.888889,16.1991111 266.888889,16.4444444 C266.888889,17.9146667 268.085333,19.1111111 269.555556,19.1111111 C269.800889,19.1111111 270,19.3102222 270,19.5555556 Z" id="Combined-Shape"></path>
                </g>
            </g>
        </g>
    </g>
</svg>