<svg width="22px" height="24px" viewBox="0 0 22 24" version="1.1" xmlns="http://www.w3.org/2000/svg" xmlns:xlink="http://www.w3.org/1999/xlink">
    <!-- Generator: Sketch 43.2 (39069) - http://www.bohemiancoding.com/sketch -->
    <desc>Created with Sketch.</desc>
    <defs></defs>
    <g id="Icons" stroke="none" stroke-width="1" fill="none" fill-rule="evenodd">
        <g transform="translate(-322.000000, -1523.000000)" id="Organisation">
            <g transform="translate(34.000000, 1523.000000)">
                <g id="Icon/Organisation/Default" transform="translate(287.000000, 0.000000)">
                    <g id="Icon-/-Profile-/-Org">
                        <rect id="Bounds" x="0" y="0" width="24" height="24"></rect>
                        <path d="M20.5,0 L3.5,0 C3.224,0 3,0.224 3,0.5 L3,23 L1.5,23 C1.224,23 1,23.224 1,23.5 C1,23.776 1.224,24 1.5,24 L22.5,24 C22.776,24 23,23.776 23,23.5 C23,23.224 22.776,23 22.5,23 L21,23 L21,0.5 C21,0.224 20.776,0 20.5,0 Z M4,1 L20,1 L20,23 L15,23 L15,18.5 C15,18.224 14.776,18 14.5,18 L9.5,18 C9.224,18 9,18.224 9,18.5 L9,23 L4,23 L4,1 Z M14,23 L10,23 L10,19 L14,19 L14,23 Z M5.5,7 C5.224,7 5,6.776 5,6.5 L5,3.5 C5,3.224 5.224,3 5.5,3 L8.5,3 C8.776,3 9,3.224 9,3.5 L9,6.5 C9,6.776 8.776,7 8.5,7 L5.5,7 Z M6,4 L6,6 L8,6 L8,4 L6,4 Z M15.5,7 C15.224,7 15,6.776 15,6.5 L15,3.5 C15,3.224 15.224,3 15.5,3 L18.5,3 C18.776,3 19,3.224 19,3.5 L19,6.5 C19,6.776 18.776,7 18.5,7 L15.5,7 Z M16,4 L16,6 L18,6 L18,4 L16,4 Z M10.5,7 C10.224,7 10,6.776 10,6.5 L10,3.5 C10,3.224 10.224,3 10.5,3 L13.5,3 C13.776,3 14,3.224 14,3.5 L14,6.5 C14,6.776 13.776,7 13.5,7 L10.5,7 Z M11,4 L11,6 L13,6 L13,4 L11,4 Z M5.5,12 C5.224,12 5,11.776 5,11.5 L5,8.5 C5,8.224 5.224,8 5.5,8 L8.5,8 C8.776,8 9,8.224 9,8.5 L9,11.5 C9,11.776 8.776,12 8.5,12 L5.5,12 Z M6,9 L6,11 L8,11 L8,9 L6,9 Z M15.5,12 C15.224,12 15,11.776 15,11.5 L15,8.5 C15,8.224 15.224,8 15.5,8 L18.5,8 C18.776,8 19,8.224 19,8.5 L19,11.5 C19,11.776 18.776,12 18.5,12 L15.5,12 Z M16,9 L16,11 L18,11 L18,9 L16,9 Z M10.5,12 C10.224,12 10,11.776 10,11.5 L10,8.5 C10,8.224 10.224,8 10.5,8 L13.5,8 C13.776,8 14,8.224 14,8.5 L14,11.5 C14,11.776 13.776,12 13.5,12 L10.5,12 Z M11,9 L11,11 L13,11 L13,9 L11,9 Z M9,16.5 C9,16.776 8.776,17 8.5,17 L5.5,17 C5.224,17 5,16.776 5,16.5 L5,13.5 C5,13.224 5.224,13 5.5,13 L8.5,13 C8.776,13 9,13.224 9,13.5 L9,16.5 Z M8,16 L8,14 L6,14 L6,16 L8,16 Z M15.5,17 C15.224,17 15,16.776 15,16.5 L15,13.5 C15,13.224 15.224,13 15.5,13 L18.5,13 C18.776,13 19,13.224 19,13.5 L19,16.5 C19,16.776 18.776,17 18.5,17 L15.5,17 Z M16,14 L16,16 L18,16 L18,14 L16,14 Z M10.5,17 C10.224,17 10,16.776 10,16.5 L10,13.5 C10,13.224 10.224,13 10.5,13 L13.5,13 C13.776,13 14,13.224 14,13.5 L14,16.5 C14,16.776 13.776,17 13.5,17 L10.5,17 Z M11,14 L11,16 L13,16 L13,14 L11,14 Z" id="Combined-Shape" fill="currentColor" fill-rule="nonzero"></path>
                    </g>
                </g>
            </g>
        </g>
    </g>
</svg>
