<?xml version="1.0" encoding="UTF-8"?>
<svg width="45px" height="66px" viewBox="0 0 45 66" version="1.1" xmlns="http://www.w3.org/2000/svg" xmlns:xlink="http://www.w3.org/1999/xlink">
    <!-- Generator: Sketch 54.1 (76490) - https://sketchapp.com -->
    <title>User</title>
    <desc>User icon</desc>
    <g id="Sprint-82" stroke="none" stroke-width="1" fill="none" fill-rule="evenodd">
        <g id="DO-IT-HOME" transform="translate(-116.000000, -232.000000)" fill="currentColor">
            <g id="Group-4" transform="translate(73.000000, 120.000000)">
                <g id="do-bot" transform="translate(43.000000, 112.000000)">
                    <path d="M31.355752,23.4789721 C31.355752,23.4789721 28.8307666,25.030738 29.5848663,25.3669874 C30.3389659,25.7022331 31.9260711,26.2693403 33.3773383,27.0803538 C39.0176043,30.231061 42.4654878,35.1001532 44.124507,41.3042058 C44.7397724,43.6037503 44.9994624,45.9514738 44.9884755,48.3363353 C44.9684994,52.5369436 44.9355387,56.7385556 44.9994624,60.9381602 C45.0404135,63.6191219 42.7361646,66.0100058 40.0353891,65.9999685 C31.1639809,65.9668454 22.2925727,65.9909349 13.4211645,65.9899312 C10.492661,65.9899312 7.56515619,66.0009722 4.63765141,65.9738715 C2.30743352,65.9527932 0.0631130739,63.8188641 0.0351464639,61.4801742 C-0.0207867559,56.855992 0.00318462401,52.2318098 0.0181667365,47.6076276 C0.0311512339,43.838623 0.818211542,40.2282077 2.45625584,36.8366054 C5.11308378,31.3381747 9.26512655,27.4858606 15.0552136,25.4854275 C15.1550944,25.450297 15.2539763,25.413159 15.3498618,25.3699986 C15.3758308,25.3579539 15.3908129,25.3198121 15.4117879,25.2927114 C15.4117879,25.2927114 15.431764,25.2666145 13.3092981,23.9718033 C11.1868322,22.6769921 8.74774427,18.9290659 8.52900542,13.9134291 C8.36220457,10.0681411 9.71958396,6.72572157 12.4063761,3.9684764 C17.7230284,-1.48779763 26.6633543,-1.26597339 31.781244,4.31476311 C37.1448402,10.1624917 36.5645331,20.2770747 31.355752,23.4789721 M20.3019494,55.9345682 L24.5708526,55.9345682 C26.7142935,55.9345682 31.0001765,55.9265384 35.2860595,55.9446055 C35.7924549,55.946613 35.9532629,55.798061 35.94727,55.2841515 C35.9232987,53.0508531 35.9762355,50.8155473 35.921301,48.5842565 C35.8913368,47.3526803 35.8284119,46.0970146 35.563728,44.8995652 C34.5329586,40.2282077 31.7902332,37.0253066 27.2186913,35.5317569 C24.3880709,34.6063183 21.5065112,34.5792176 18.6269492,35.3119402 C15.2389942,36.1731401 12.6141281,38.0832375 10.8352519,41.1365829 C9.46588686,43.4863139 9.03939605,46.0638915 9.00244018,48.7297973 C8.97147714,50.9098979 9.01542467,53.0910023 8.98246403,55.2700992 C8.97347476,55.8291766 9.15825415,55.946613 9.67563643,55.9446055 C13.9255623,55.9265384 18.176487,55.9345682 20.3019494,55.9345682 M27.8659186,13.4627545 C27.8699138,10.1313761 25.2490429,7.47550757 21.948983,7.46848146 C18.6309445,7.46145536 15.9801094,10.0922306 15.9711201,13.401527 C15.9621308,16.7650249 18.5859981,19.4229008 21.9150235,19.4218971 C25.2260704,19.4218971 27.8629222,16.7820883 27.8659186,13.4627545" id="Fill-1-Copy"></path>
                </g>
            </g>
        </g>
    </g>
</svg>